<svg xmlns="http://www.w3.org/2000/svg" xmlns:xlink="http://www.w3.org/1999/xlink" width="1920" zoomAndPan="magnify" viewBox="0 0 1440 809.999993" height="1080" preserveAspectRatio="xMidYMid meet" version="1.0"><defs><clipPath id="60f2e71c7f"><path d="M 0 81 L 183.09375 81 L 183.09375 675.375 L 0 675.375 Z M 0 81 " clip-rule="nonzero"/></clipPath><clipPath id="a90d66002f"><path d="M 1317.128906 511.167969 L 1440 511.167969 L 1440 723.769531 L 1317.128906 723.769531 Z M 1317.128906 511.167969 " clip-rule="nonzero"/></clipPath></defs><g clip-path="url(#60f2e71c7f)"><path fill="#ededed" d="M -591.871094 479.253906 C -591.300781 477.710938 -589.839844 476.753906 -588.285156 476.753906 C -587.84375 476.753906 -587.394531 476.832031 -586.957031 476.996094 L -568.519531 483.824219 C -566.539062 484.558594 -565.527344 486.757812 -566.261719 488.738281 C -566.992188 490.722656 -569.191406 491.734375 -571.171875 491 L -589.613281 484.171875 C -591.59375 483.4375 -592.605469 481.234375 -591.871094 479.253906 Z M -586.921875 281.523438 L -568.273438 275.28125 C -566.273438 274.609375 -565.191406 272.441406 -565.863281 270.4375 C -566.398438 268.835938 -567.886719 267.824219 -569.488281 267.824219 C -569.890625 267.824219 -570.296875 267.886719 -570.699219 268.023438 L -589.347656 274.265625 C -591.347656 274.9375 -592.429688 277.105469 -591.757812 279.109375 C -591.089844 281.113281 -588.921875 282.191406 -586.921875 281.523438 Z M -605.398438 470.164062 L -623.835938 463.335938 C -624.277344 463.171875 -624.722656 463.09375 -625.164062 463.09375 C -626.71875 463.09375 -628.179688 464.050781 -628.75 465.59375 C -629.484375 467.574219 -628.472656 469.777344 -626.492188 470.507812 L -608.050781 477.339844 C -606.074219 478.074219 -603.871094 477.058594 -603.140625 475.078125 C -602.40625 473.097656 -603.417969 470.898438 -605.398438 470.164062 Z M -515.855469 511.492188 L -497.414062 518.320312 C -495.433594 519.054688 -493.234375 518.042969 -492.503906 516.0625 C -491.769531 514.082031 -492.78125 511.878906 -494.761719 511.148438 L -513.199219 504.316406 C -513.636719 504.152344 -514.085938 504.078125 -514.527344 504.078125 C -516.082031 504.078125 -517.542969 505.03125 -518.113281 506.574219 C -518.84375 508.554688 -517.835938 510.757812 -515.855469 511.492188 Z M -624.214844 294.007812 L -605.566406 287.765625 C -603.566406 287.09375 -602.484375 284.925781 -603.15625 282.921875 C -603.691406 281.324219 -605.179688 280.3125 -606.78125 280.3125 C -607.183594 280.3125 -607.589844 280.375 -607.992188 280.507812 L -626.640625 286.753906 C -628.640625 287.421875 -629.722656 289.589844 -629.050781 291.59375 C -628.382812 293.597656 -626.214844 294.679688 -624.214844 294.007812 Z M -552.734375 497.832031 L -534.292969 504.660156 C -532.316406 505.394531 -530.113281 504.382812 -529.382812 502.402344 C -528.648438 500.417969 -529.660156 498.21875 -531.640625 497.484375 L -550.078125 490.65625 C -550.515625 490.492188 -550.964844 490.414062 -551.40625 490.414062 C -552.960938 490.414062 -554.421875 491.371094 -554.992188 492.914062 C -555.726562 494.894531 -554.714844 497.097656 -552.734375 497.832031 Z M -549.628906 269.035156 L -530.980469 262.792969 C -528.980469 262.121094 -527.898438 259.953125 -528.570312 257.949219 C -529.105469 256.351562 -530.59375 255.335938 -532.195312 255.335938 C -532.597656 255.335938 -533.003906 255.402344 -533.40625 255.535156 L -552.054688 261.78125 C -554.058594 262.449219 -555.136719 264.617188 -554.464844 266.621094 C -553.796875 268.625 -551.628906 269.707031 -549.628906 269.035156 Z M -698.800781 318.980469 L -680.152344 312.738281 C -678.148438 312.066406 -677.070312 309.898438 -677.738281 307.898438 C -678.277344 306.296875 -679.765625 305.285156 -681.367188 305.285156 C -681.765625 305.285156 -682.175781 305.347656 -682.578125 305.480469 L -701.226562 311.726562 C -703.226562 312.394531 -704.308594 314.5625 -703.636719 316.566406 C -702.96875 318.570312 -700.800781 319.648438 -698.800781 318.980469 Z M -736.089844 331.46875 L -717.445312 325.226562 C -715.441406 324.554688 -714.363281 322.386719 -715.03125 320.382812 C -715.566406 318.78125 -717.058594 317.769531 -718.65625 317.769531 C -719.058594 317.769531 -719.46875 317.832031 -719.871094 317.96875 L -738.519531 324.210938 C -740.519531 324.882812 -741.601562 327.050781 -740.929688 329.054688 C -740.261719 331.058594 -738.09375 332.136719 -736.089844 331.46875 Z M -478.976562 525.152344 L -460.535156 531.984375 C -458.554688 532.71875 -456.355469 531.707031 -455.621094 529.722656 C -454.890625 527.742188 -455.898438 525.539062 -457.878906 524.808594 L -476.320312 517.976562 C -476.757812 517.8125 -477.207031 517.738281 -477.648438 517.738281 C -479.199219 517.738281 -480.660156 518.691406 -481.234375 520.234375 C -481.964844 522.21875 -480.953125 524.417969 -478.976562 525.152344 Z M -734.476562 422.351562 C -734.914062 422.191406 -735.363281 422.113281 -735.800781 422.113281 C -737.355469 422.113281 -738.816406 423.070312 -739.386719 424.613281 C -740.121094 426.59375 -739.109375 428.792969 -737.128906 429.527344 L -718.691406 436.359375 C -716.710938 437.09375 -714.511719 436.078125 -713.777344 434.097656 C -713.042969 432.117188 -714.054688 429.914062 -716.035156 429.183594 Z M -512.335938 256.550781 L -493.6875 250.308594 C -491.6875 249.636719 -490.605469 247.46875 -491.277344 245.464844 C -491.8125 243.863281 -493.300781 242.851562 -494.902344 242.851562 C -495.304688 242.851562 -495.710938 242.914062 -496.113281 243.050781 L -514.761719 249.292969 C -516.765625 249.964844 -517.84375 252.132812 -517.175781 254.136719 C -516.503906 256.140625 -514.335938 257.222656 -512.335938 256.550781 Z M -642.277344 456.503906 L -660.71875 449.671875 C -661.15625 449.511719 -661.601562 449.433594 -662.042969 449.433594 C -663.597656 449.433594 -665.058594 450.390625 -665.628906 451.933594 C -666.363281 453.914062 -665.351562 456.117188 -663.371094 456.847656 L -644.933594 463.679688 C -642.949219 464.414062 -640.753906 463.398438 -640.019531 461.417969 C -639.285156 459.4375 -640.296875 457.238281 -642.277344 456.503906 Z M -679.15625 442.84375 L -697.597656 436.011719 C -698.035156 435.851562 -698.480469 435.773438 -698.921875 435.773438 C -700.476562 435.773438 -701.9375 436.730469 -702.507812 438.273438 C -703.242188 440.253906 -702.230469 442.457031 -700.25 443.1875 L -681.8125 450.019531 C -679.832031 450.753906 -677.628906 449.738281 -676.898438 447.757812 C -676.164062 445.777344 -677.175781 443.574219 -679.15625 442.84375 Z M -661.507812 306.496094 L -642.859375 300.253906 C -640.855469 299.582031 -639.777344 297.414062 -640.445312 295.410156 C -640.984375 293.808594 -642.472656 292.796875 -644.070312 292.796875 C -644.472656 292.796875 -644.882812 292.859375 -645.285156 292.996094 L -663.933594 299.238281 C -665.933594 299.910156 -667.015625 302.078125 -666.34375 304.082031 C -665.675781 306.085938 -663.507812 307.167969 -661.507812 306.496094 Z M -273.484375 593.109375 L -291.921875 586.28125 C -292.363281 586.117188 -292.808594 586.039062 -293.25 586.039062 C -294.804688 586.039062 -296.265625 586.996094 -296.835938 588.539062 C -297.570312 590.519531 -296.558594 592.722656 -294.578125 593.453125 L -276.136719 600.285156 C -274.15625 601.019531 -271.960938 600.007812 -271.226562 598.027344 C -270.492188 596.042969 -271.503906 593.84375 -273.484375 593.109375 Z M -310.363281 579.449219 L -328.804688 572.617188 C -329.242188 572.457031 -329.6875 572.378906 -330.128906 572.378906 C -331.683594 572.378906 -333.144531 573.335938 -333.714844 574.878906 C -334.449219 576.859375 -333.4375 579.0625 -331.457031 579.792969 L -313.019531 586.625 C -311.039062 587.359375 -308.839844 586.347656 -308.105469 584.367188 C -307.371094 582.382812 -308.382812 580.183594 -310.363281 579.449219 Z M -325.871094 194.117188 L -307.226562 187.875 C -305.222656 187.203125 -304.140625 185.035156 -304.8125 183.03125 C -305.347656 181.433594 -306.839844 180.417969 -308.4375 180.417969 C -308.839844 180.417969 -309.25 180.484375 -309.652344 180.617188 L -328.296875 186.863281 C -330.300781 187.53125 -331.378906 189.699219 -330.710938 191.703125 C -330.039062 193.707031 -327.875 194.789062 -325.871094 194.117188 Z M -363.164062 206.605469 L -344.519531 200.359375 C -342.515625 199.691406 -341.433594 197.523438 -342.105469 195.519531 C -342.640625 193.917969 -344.132812 192.90625 -345.730469 192.90625 C -346.132812 192.90625 -346.542969 192.96875 -346.945312 193.105469 L -365.589844 199.347656 C -367.59375 200.019531 -368.671875 202.1875 -368.003906 204.191406 C -367.332031 206.195312 -365.164062 207.277344 -363.164062 206.605469 Z M -347.242188 565.789062 L -365.683594 558.957031 C -366.121094 558.796875 -366.566406 558.71875 -367.007812 558.71875 C -368.5625 558.71875 -370.023438 559.675781 -370.59375 561.21875 C -371.328125 563.199219 -370.316406 565.402344 -368.335938 566.132812 L -349.898438 572.964844 C -347.917969 573.699219 -345.71875 572.6875 -344.984375 570.703125 C -344.25 568.722656 -345.261719 566.523438 -347.242188 565.789062 Z M -400.457031 219.089844 L -381.8125 212.847656 C -379.808594 212.175781 -378.726562 210.007812 -379.398438 208.003906 C -379.933594 206.40625 -381.425781 205.390625 -383.023438 205.390625 C -383.425781 205.390625 -383.835938 205.457031 -384.238281 205.589844 L -402.882812 211.835938 C -404.886719 212.503906 -405.964844 214.671875 -405.296875 216.675781 C -404.625 218.679688 -402.457031 219.757812 -400.457031 219.089844 Z M -384.121094 552.128906 L -402.5625 545.296875 C -403 545.136719 -403.449219 545.058594 -403.886719 545.058594 C -405.441406 545.058594 -406.902344 546.015625 -407.472656 547.558594 C -408.207031 549.539062 -407.195312 551.738281 -405.214844 552.472656 L -386.777344 559.304688 C -384.796875 560.039062 -382.597656 559.027344 -381.863281 557.042969 C -381.128906 555.0625 -382.140625 552.863281 -384.121094 552.128906 Z M -442.09375 538.8125 L -423.65625 545.644531 C -421.675781 546.378906 -419.476562 545.367188 -418.742188 543.382812 C -418.011719 541.402344 -419.019531 539.199219 -421 538.46875 L -439.441406 531.636719 C -439.878906 531.472656 -440.328125 531.398438 -440.769531 531.398438 C -442.320312 531.398438 -443.78125 532.351562 -444.355469 533.898438 C -445.085938 535.878906 -444.074219 538.078125 -442.09375 538.8125 Z M -437.75 231.578125 L -419.101562 225.335938 C -417.101562 224.664062 -416.019531 222.496094 -416.691406 220.492188 C -417.226562 218.890625 -418.714844 217.878906 -420.316406 217.878906 C -420.71875 217.878906 -421.128906 217.941406 -421.527344 218.078125 L -440.175781 224.320312 C -442.179688 224.992188 -443.257812 227.160156 -442.589844 229.164062 C -441.917969 231.167969 -439.75 232.246094 -437.75 231.578125 Z M -475.042969 244.0625 L -456.394531 237.820312 C -454.394531 237.148438 -453.3125 234.980469 -453.984375 232.976562 C -454.519531 231.378906 -456.011719 230.363281 -457.609375 230.363281 C -458.011719 230.363281 -458.417969 230.429688 -458.824219 230.5625 L -477.46875 236.808594 C -479.472656 237.476562 -480.550781 239.644531 -479.882812 241.648438 C -479.210938 243.652344 -477.042969 244.730469 -475.042969 244.0625 Z M -364.277344 543.269531 C -316.050781 524.625 -267.246094 555.015625 -256.46875 599.714844 C -257.984375 599.753906 -259.398438 600.6875 -259.957031 602.199219 C -260.691406 604.179688 -259.679688 606.382812 -257.699219 607.117188 L -254.960938 608.128906 C -253.667969 618.171875 -254.230469 628.777344 -257.132812 639.609375 C -213.613281 589.839844 -132.035156 610.566406 -117.519531 675.089844 C -102.097656 610.777344 -20.238281 591.199219 22.582031 641.578125 C 6.371094 577.460938 69.761719 522.054688 131.070312 546.75 C 86.941406 497.519531 117.339844 418.980469 183.09375 412.335938 C 121.15625 389.265625 111.597656 305.585938 166.738281 269.125 C 101.179688 277.496094 53.855469 207.851562 85.742188 149.921875 C 31.585938 187.824219 -42.664062 148.160156 -41.328125 82.039062 C -71.683594 140.785156 -155.847656 140.195312 -185.371094 81.027344 C -185.15625 116 -205.980469 143.269531 -233.574219 155.492188 C -233.667969 155.484375 -233.757812 155.449219 -233.851562 155.449219 C -234.253906 155.449219 -234.664062 155.511719 -235.066406 155.644531 L -250.882812 160.941406 C -271.414062 165.007812 -293.808594 161.230469 -313.386719 147.117188 C -282.3125 205.484375 -330.609375 274.460938 -396.042969 265.167969 C -341.421875 302.402344 -352.15625 385.9375 -414.410156 408.136719 C -348.753906 415.703125 -319.464844 494.660156 -364.277344 543.269531 Z M -1150.449219 385.046875 C -1150.339844 387.277344 -1150.179688 389.492188 -1149.96875 391.695312 C -1149.964844 391.695312 -1149.964844 391.695312 -1149.964844 391.695312 C -1149.671875 394.753906 -1149.277344 397.78125 -1148.785156 400.777344 C -1148.785156 400.789062 -1148.785156 400.789062 -1148.785156 400.789062 C -1147.519531 408.550781 -1145.609375 416.09375 -1143.117188 423.371094 C -1142.625 424.804688 -1142.125 426.214844 -1141.578125 427.625 C -1140.769531 429.765625 -1139.90625 431.886719 -1138.988281 433.988281 C -1137.285156 437.886719 -1135.40625 441.703125 -1133.351562 445.421875 C -1125.617188 459.5 -1115.511719 472.089844 -1103.585938 482.660156 C -1101.53125 484.5 -1099.433594 486.257812 -1097.269531 487.953125 C -1097 488.183594 -1096.714844 488.402344 -1096.429688 488.621094 C -1095.609375 489.265625 -1094.769531 489.898438 -1093.929688 490.519531 C -1091.984375 491.964844 -1089.996094 493.351562 -1087.976562 494.6875 C -1078.996094 500.644531 -1069.285156 505.59375 -1059.015625 509.34375 C -1048.640625 513.171875 -1037.695312 515.785156 -1026.324219 517.019531 C -1021.265625 517.585938 -1016.109375 517.871094 -1010.898438 517.871094 C -1004.058594 517.871094 -997.34375 517.378906 -990.753906 516.429688 C -990.746094 516.429688 -990.742188 516.429688 -990.734375 516.429688 C -989.597656 516.265625 -988.460938 516.078125 -987.324219 515.890625 L -987.3125 515.890625 C -986.296875 515.71875 -985.28125 515.53125 -984.265625 515.335938 C -980.640625 514.632812 -977.078125 513.792969 -973.5625 512.820312 C -972.632812 512.570312 -971.714844 512.296875 -970.796875 512.023438 C -965.566406 510.460938 -960.464844 508.589844 -955.515625 506.457031 C -954.6875 506.097656 -953.855469 505.726562 -953.023438 505.34375 C -950.675781 504.273438 -948.371094 503.148438 -946.101562 501.945312 C -946.070312 501.929688 -946.039062 501.910156 -946.011719 501.894531 C -944.042969 500.859375 -942.109375 499.765625 -940.199219 498.644531 C -939.636719 498.3125 -939.078125 497.96875 -938.519531 497.628906 C -937.050781 496.738281 -935.59375 495.816406 -934.160156 494.871094 C -933.671875 494.550781 -933.179688 494.234375 -932.695312 493.902344 C -928.863281 491.3125 -925.171875 488.53125 -921.628906 485.582031 C -921.335938 485.335938 -921.046875 485.089844 -920.757812 484.84375 C -919.152344 483.488281 -917.582031 482.09375 -916.039062 480.667969 C -915.859375 480.503906 -915.679688 480.339844 -915.503906 480.175781 C -911.964844 476.863281 -908.601562 473.371094 -905.421875 469.707031 C -905.351562 469.628906 -905.285156 469.542969 -905.214844 469.464844 C -903.636719 467.636719 -902.101562 465.773438 -900.621094 463.867188 C -900.613281 463.859375 -900.605469 463.851562 -900.597656 463.839844 L -762.925781 420.875 L -762.925781 420.851562 C -762.769531 420.855469 -762.617188 420.878906 -762.457031 420.878906 C -761.871094 420.878906 -761.300781 420.8125 -760.71875 420.789062 L -755.570312 422.695312 C -753.589844 423.433594 -751.390625 422.417969 -750.65625 420.4375 C -750.503906 420.019531 -750.441406 419.59375 -750.433594 419.175781 C -731.917969 413.929688 -718.335938 396.933594 -718.335938 376.726562 C -718.335938 355.902344 -732.765625 338.488281 -752.148438 333.835938 C -752.171875 333.515625 -752.21875 333.191406 -752.324219 332.871094 C -752.859375 331.269531 -754.351562 330.257812 -755.949219 330.257812 C -756.351562 330.257812 -756.761719 330.320312 -757.164062 330.453125 L -762.480469 332.234375 L -904 288.070312 C -929.628906 257.613281 -967.996094 238.246094 -1010.898438 238.246094 C -1049.46875 238.246094 -1084.390625 253.875 -1109.679688 279.179688 C -1112.574219 282.078125 -1115.351562 285.09375 -1117.980469 288.242188 C -1119.816406 290.429688 -1121.585938 292.671875 -1123.28125 294.976562 C -1126.480469 299.285156 -1129.429688 303.796875 -1132.117188 308.476562 C -1134.71875 313 -1137.078125 317.679688 -1139.164062 322.5 C -1141.925781 328.882812 -1144.21875 335.507812 -1146.011719 342.339844 C -1146.777344 345.195312 -1147.433594 348.078125 -1148 351 C -1148.21875 352.132812 -1148.425781 353.28125 -1148.632812 354.429688 C -1148.863281 355.796875 -1149.070312 357.164062 -1149.265625 358.527344 C -1149.320312 358.964844 -1149.386719 359.402344 -1149.441406 359.839844 C -1149.628906 361.285156 -1149.800781 362.738281 -1149.945312 364.203125 C -1150.011719 364.902344 -1150.074219 365.601562 -1150.128906 366.3125 C -1150.195312 367.078125 -1150.261719 367.863281 -1150.304688 368.640625 C -1150.359375 369.417969 -1150.402344 370.191406 -1150.445312 370.980469 C -1150.492188 371.875 -1150.523438 372.773438 -1150.554688 373.667969 C -1150.578125 374.347656 -1150.589844 375.011719 -1150.601562 375.691406 C -1150.609375 376.476562 -1150.621094 377.277344 -1150.621094 378.0625 C -1150.621094 380.40625 -1150.5625 382.734375 -1150.449219 385.046875 Z M -1150.449219 385.046875 " fill-opacity="1" fill-rule="nonzero"/><path fill="#ffce00" d="M -336.613281 376.636719 C -336.613281 254.703125 -237.476562 155.5 -115.625 155.5 C 6.226562 155.5 105.363281 254.703125 105.363281 376.636719 C 105.363281 498.574219 6.226562 597.777344 -115.625 597.777344 C -237.476562 597.777344 -336.613281 498.574219 -336.613281 376.636719 Z M -414.410156 408.132812 C -352.15625 385.9375 -341.421875 302.402344 -396.042969 265.164062 C -330.609375 274.460938 -282.3125 205.484375 -313.386719 147.117188 L -313.386719 147.113281 L -313.386719 147.117188 C -293.808594 161.230469 -271.414062 165.007812 -250.882812 160.941406 C -244.917969 159.761719 -239.109375 157.941406 -233.574219 155.492188 C -205.980469 143.269531 -185.15625 116 -185.371094 81.027344 C -155.84375 140.195312 -71.683594 140.785156 -41.328125 82.039062 C -42.664062 148.160156 31.585938 187.824219 85.746094 149.921875 C 53.855469 207.847656 101.179688 277.496094 166.738281 269.125 C 111.597656 305.585938 121.15625 389.265625 183.09375 412.335938 C 117.339844 418.980469 86.941406 497.519531 131.070312 546.75 C 69.761719 522.054688 6.371094 577.460938 22.582031 641.574219 C -20.238281 591.199219 -102.09375 610.777344 -117.519531 675.085938 L -117.519531 675.089844 C -132.035156 610.566406 -213.609375 589.839844 -257.132812 639.609375 C -254.230469 628.773438 -253.667969 618.171875 -254.960938 608.128906 C -255.328125 605.28125 -255.804688 602.464844 -256.46875 599.714844 C -267.246094 555.015625 -316.050781 524.625 -364.277344 543.269531 C -319.464844 494.660156 -348.753906 415.703125 -414.410156 408.132812 Z M -344.257812 376.636719 C -344.257812 502.792969 -241.695312 605.425781 -115.625 605.425781 C 10.445312 605.425781 113.007812 502.792969 113.007812 376.636719 C 113.007812 250.484375 10.445312 147.851562 -115.625 147.851562 C -241.691406 147.851562 -344.257812 250.484375 -344.257812 376.636719 Z M -763.796875 394.164062 C -758.242188 394.164062 -753.742188 389.660156 -753.742188 384.101562 C -753.742188 378.546875 -758.242188 374.039062 -763.796875 374.039062 C -769.351562 374.039062 -773.851562 378.546875 -773.851562 384.101562 C -773.851562 389.660156 -769.351562 394.164062 -763.796875 394.164062 Z M -754.746094 371.382812 C -754.746094 375.25 -751.613281 378.386719 -747.746094 378.386719 C -743.882812 378.386719 -740.746094 375.25 -740.746094 371.382812 C -740.746094 367.515625 -743.882812 364.378906 -747.746094 364.378906 C -751.613281 364.378906 -754.746094 367.515625 -754.746094 371.382812 Z M -781.554688 358.976562 C -784.535156 358.976562 -786.953125 361.394531 -786.953125 364.378906 C -786.953125 367.359375 -784.535156 369.777344 -781.554688 369.777344 C -778.574219 369.777344 -776.15625 367.359375 -776.15625 364.378906 C -776.15625 361.394531 -778.574219 358.976562 -781.554688 358.976562 Z M -792.917969 354.886719 C -792.917969 357.011719 -791.199219 358.734375 -789.074219 358.734375 C -786.953125 358.734375 -785.230469 357.011719 -785.230469 354.886719 C -785.230469 352.765625 -786.953125 351.042969 -789.074219 351.042969 C -791.199219 351.042969 -792.917969 352.765625 -792.917969 354.886719 Z M -777.132812 356.292969 C -775.320312 356.292969 -773.851562 354.824219 -773.851562 353.011719 C -773.851562 351.195312 -775.320312 349.726562 -777.132812 349.726562 C -778.945312 349.726562 -780.414062 351.199219 -780.414062 353.011719 C -780.414062 354.824219 -778.945312 356.292969 -777.132812 356.292969 Z M -782.546875 347.011719 C -781.285156 347.011719 -780.261719 345.984375 -780.261719 344.722656 C -780.261719 343.457031 -781.285156 342.433594 -782.546875 342.433594 C -783.8125 342.433594 -784.835938 343.457031 -784.835938 344.722656 C -784.835938 345.984375 -783.8125 347.011719 -782.546875 347.011719 Z M -742.671875 396.101562 C -742.671875 398.910156 -740.394531 401.1875 -737.585938 401.1875 C -734.78125 401.1875 -732.503906 398.910156 -732.503906 396.101562 C -732.503906 393.289062 -734.78125 391.015625 -737.585938 391.015625 C -740.394531 391.015625 -742.671875 393.292969 -742.671875 396.101562 Z M -746.613281 398.996094 C -748.902344 398.996094 -750.757812 400.855469 -750.757812 403.144531 C -750.757812 405.4375 -748.902344 407.292969 -746.613281 407.292969 C -744.324219 407.292969 -742.46875 405.4375 -742.46875 403.144531 C -742.46875 400.855469 -744.324219 398.996094 -746.613281 398.996094 Z M -746.613281 345.914062 C -745.207031 345.914062 -744.066406 344.773438 -744.066406 343.367188 C -744.066406 341.960938 -745.207031 340.816406 -746.613281 340.816406 C -748.019531 340.816406 -749.160156 341.960938 -749.160156 343.367188 C -749.160156 344.773438 -748.019531 345.914062 -746.613281 345.914062 Z M -773.445312 415.320312 C -770.746094 415.320312 -768.558594 413.132812 -768.558594 410.433594 C -768.558594 407.734375 -770.746094 405.542969 -773.445312 405.542969 C -776.140625 405.542969 -778.328125 407.734375 -778.328125 410.433594 C -778.328125 413.132812 -776.140625 415.320312 -773.445312 415.320312 Z M -782.4375 404.125 C -783.789062 404.125 -784.882812 405.222656 -784.882812 406.574219 C -784.882812 407.921875 -783.789062 409.019531 -782.4375 409.019531 C -781.089844 409.019531 -779.996094 407.921875 -779.996094 406.574219 C -779.996094 405.222656 -781.089844 404.125 -782.4375 404.125 Z M -782.4375 404.125 " fill-opacity="1" fill-rule="nonzero"/></g><g clip-path="url(#a90d66002f)"><path fill="#2a913e" d="M 1656.421875 597.660156 C 1681.398438 623.597656 1648.257812 649.054688 1648.257812 649.054688 C 1659.785156 654.339844 1680.4375 680.277344 1635.289062 699.492188 C 1590.136719 718.707031 1558.917969 691.808594 1558.917969 691.808594 C 1552.191406 708.621094 1524.335938 723.992188 1487.351562 723.511719 C 1450.367188 723.035156 1419.148438 690.367188 1419.148438 690.367188 C 1351.902344 736.964844 1308.671875 705.257812 1319.238281 675.476562 C 1329.808594 645.695312 1376.398438 648.097656 1376.398438 648.097656 C 1376.398438 648.097656 1344.699219 618.3125 1378.800781 589.492188 C 1412.902344 560.671875 1462.375 580.367188 1462.375 580.367188 C 1461.894531 555.867188 1484.46875 501.585938 1546.910156 513.59375 C 1609.351562 525.601562 1593.980469 596.695312 1593.980469 596.695312 C 1605.511719 581.324219 1631.445312 571.71875 1656.421875 597.660156 " fill-opacity="1" fill-rule="nonzero"/></g><path fill="#2a913e" d="M 1317.65625 565.953125 C 1317.65625 565.953125 1298.109375 591.894531 1276.011719 591.894531 C 1253.917969 591.894531 1241.910156 571.71875 1267.847656 554.90625 C 1267.847656 554.90625 1253.917969 537.613281 1272.648438 524.164062 C 1291.382812 510.714844 1315.585938 514.074219 1317.65625 519.839844 C 1317.65625 519.839844 1352.863281 493.902344 1365.828125 516.957031 C 1365.828125 516.957031 1383.601562 519.359375 1373.515625 544.816406 C 1363.429688 570.277344 1317.65625 565.953125 1317.65625 565.953125 " fill-opacity="1" fill-rule="nonzero"/></svg>